<svg width="1663" height="995" xmlns="http://www.w3.org/2000/svg"><g><path d="M-30.51955360919237,-43.88944854028523L-59.980301074683666,77.47115948237479L111.9219077937305,116.9180312845856Z" fill="#f5f5fb" stroke="#f5f5fb"></path><path d="M-30.51955360919237,-43.88944854028523L111.9219077937305,116.9180312845856L130.20203053951263,-85.27491490356624Z" fill="#f4f4f9" stroke="#f4f4f9"></path><path d="M-30.51955360919237,-43.88944854028523L130.20203053951263,-85.27491490356624L165.9861962031573,-120.26587910950184Z" fill="#f3f3f9" stroke="#f3f3f9"></path><path d="M130.20203053951263,-85.27491490356624L111.9219077937305,116.9180312845856L232.30029419995844,30.44261835515499Z" fill="#edeff7" stroke="#edeff7"></path><path d="M130.20203053951263,-85.27491490356624L232.30029419995844,30.44261835515499L165.9861962031573,-120.26587910950184Z" fill="#edeff6" stroke="#edeff6"></path><path d="M165.9861962031573,-120.26587910950184L232.30029419995844,30.44261835515499L365.28124468401074,-70.53310845047235Z" fill="#e8ebf4" stroke="#e8ebf4"></path><path d="M165.9861962031573,-120.26587910950184L365.28124468401074,-70.53310845047235L545.1852315757424,-119.98645132407546Z" fill="#e2e7f2" stroke="#e2e7f2"></path><path d="M365.28124468401074,-70.53310845047235L232.30029419995844,30.44261835515499L372.3514413367957,24.332016985863447Z" fill="#e4e8f3" stroke="#e4e8f3"></path><path d="M365.28124468401074,-70.53310845047235L372.3514413367957,24.332016985863447L467.35310333780944,52.24038714542985Z" fill="#dfe5f1" stroke="#dfe5f1"></path><path d="M365.28124468401074,-70.53310845047235L467.35310333780944,52.24038714542985L545.1852315757424,-119.98645132407546Z" fill="#dae3ef" stroke="#dae3ef"></path><path d="M545.1852315757424,-119.98645132407546L467.35310333780944,52.24038714542985L646.5697215031832,-106.56848570331931Z" fill="#d2dfed" stroke="#d2dfed"></path><path d="M545.1852315757424,-119.98645132407546L646.5697215031832,-106.56848570331931L918.4409977309406,-113.48572782240808Z" fill="#c5d9ea" stroke="#c5d9ea"></path><path d="M646.5697215031832,-106.56848570331931L467.35310333780944,52.24038714542985L701.9983456190675,82.84893667325377Z" fill="#cddcec" stroke="#cddcec"></path><path d="M646.5697215031832,-106.56848570331931L701.9983456190675,82.84893667325377L809.5583262015134,-19.116541408002377Z" fill="#c4d9ea" stroke="#c4d9ea"></path><path d="M646.5697215031832,-106.56848570331931L809.5583262015134,-19.116541408002377L918.4409977309406,-113.48572782240808Z" fill="#bdd6e8" stroke="#bdd6e8"></path><path d="M809.5583262015134,-19.116541408002377L701.9983456190675,82.84893667325377L853.9415450580418,71.23654916882515Z" fill="#bbd4e8" stroke="#bbd4e8"></path><path d="M809.5583262015134,-19.116541408002377L853.9415450580418,71.23654916882515L968.37745456025,29.97573534026742Z" fill="#b2d0e6" stroke="#b2d0e6"></path><path d="M809.5583262015134,-19.116541408002377L968.37745456025,29.97573534026742L918.4409977309406,-113.48572782240808Z" fill="#b1d0e5" stroke="#b1d0e5"></path><path d="M918.4409977309406,-113.48572782240808L968.37745456025,29.97573534026742L1106.459764195606,34.73547843284905Z" fill="#a4c9e1" stroke="#a4c9e1"></path><path d="M918.4409977309406,-113.48572782240808L1106.459764195606,34.73547843284905L1174.133145706728,-107.35030906274915Z" fill="#9ac4de" stroke="#9ac4de"></path><path d="M918.4409977309406,-113.48572782240808L1174.133145706728,-107.35030906274915L1274.2504437826574,-105.42332338169217Z" fill="#93c0dc" stroke="#93c0dc"></path><path d="M1174.133145706728,-107.35030906274915L1106.459764195606,34.73547843284905L1246.1774198245257,84.55103617161512Z" fill="#8cbdda" stroke="#8cbdda"></path><path d="M1174.133145706728,-107.35030906274915L1246.1774198245257,84.55103617161512L1274.2504437826574,-105.42332338169217Z" fill="#84b9d8" stroke="#84b9d8"></path><path d="M1274.2504437826574,-105.42332338169217L1246.1774198245257,84.55103617161512L1449.0654260572046,-30.38532592356205Z" fill="#80b3d5" stroke="#80b3d5"></path><path d="M1274.2504437826574,-105.42332338169217L1449.0654260572046,-30.38532592356205L1670.5310251191258,-96.41048605553806Z" fill="#80a9d0" stroke="#80a9d0"></path><path d="M1449.0654260572046,-30.38532592356205L1246.1774198245257,84.55103617161512L1475.1194167602807,56.912568463012576Z" fill="#7eadd2" stroke="#7eadd2"></path><path d="M1449.0654260572046,-30.38532592356205L1475.1194167602807,56.912568463012576L1543.619193630293,-17.271801810711622Z" fill="#80a7cf" stroke="#80a7cf"></path><path d="M1449.0654260572046,-30.38532592356205L1543.619193630293,-17.271801810711622L1670.5310251191258,-96.41048605553806Z" fill="#80a3cc" stroke="#80a3cc"></path><path d="M1543.619193630293,-17.271801810711622L1475.1194167602807,56.912568463012576L1545.6040414609015,24.652420207858086Z" fill="#7ea4ce" stroke="#7ea4ce"></path><path d="M1543.619193630293,-17.271801810711622L1545.6040414609015,24.652420207858086L1670.5310251191258,-96.41048605553806Z" fill="#80a0cb" stroke="#80a0cb"></path><path d="M1670.5310251191258,-96.41048605553806L1545.6040414609015,24.652420207858086L1755.1966275461018,87.78821742162108Z" fill="#7f9cc8" stroke="#7f9cc8"></path><path d="M1670.5310251191258,-96.41048605553806L1755.1966275461018,87.78821742162108L1842.0655648224056,-88.79629139788449Z" fill="#8095c5" stroke="#8095c5"></path><path d="M1842.0655648224056,-88.79629139788449L1755.1966275461018,87.78821742162108L1816.84365587309,94.91092141717672Z" fill="#7e91c3" stroke="#7e91c3"></path><path d="M1842.0655648224056,-88.79629139788449L1816.84365587309,94.91092141717672L1869.794344548136,320.4579799901694Z" fill="#798bc2" stroke="#798bc2"></path><path d="M-59.980301074683666,77.47115948237479L-82.81745865941048,177.9394422378391L111.9219077937305,116.9180312845856Z" fill="#f1f4fb" stroke="#f1f4fb"></path><path d="M111.9219077937305,116.9180312845856L-82.81745865941048,177.9394422378391L49.87159584648907,279.1810957621783Z" fill="#ebf0fa" stroke="#ebf0fa"></path><path d="M111.9219077937305,116.9180312845856L49.87159584648907,279.1810957621783L282.4568902608007,282.47549816966057Z" fill="#e1e9f7" stroke="#e1e9f7"></path><path d="M111.9219077937305,116.9180312845856L282.4568902608007,282.47549816966057L232.30029419995844,30.44261835515499Z" fill="#e3e9f5" stroke="#e3e9f5"></path><path d="M232.30029419995844,30.44261835515499L282.4568902608007,282.47549816966057L407.97736161388457,211.86524575576186Z" fill="#dbe4f3" stroke="#dbe4f3"></path><path d="M232.30029419995844,30.44261835515499L407.97736161388457,211.86524575576186L372.3514413367957,24.332016985863447Z" fill="#dee5f2" stroke="#dee5f2"></path><path d="M372.3514413367957,24.332016985863447L407.97736161388457,211.86524575576186L467.35310333780944,52.24038714542985Z" fill="#d8e1f0" stroke="#d8e1f0"></path><path d="M467.35310333780944,52.24038714542985L407.97736161388457,211.86524575576186L517.047359906137,212.7693530637771Z" fill="#d1ddef" stroke="#d1ddef"></path><path d="M467.35310333780944,52.24038714542985L517.047359906137,212.7693530637771L701.9983456190675,82.84893667325377Z" fill="#cadbed" stroke="#cadbed"></path><path d="M701.9983456190675,82.84893667325377L517.047359906137,212.7693530637771L624.3121395818889,276.6342830937356Z" fill="#c1d7ec" stroke="#c1d7ec"></path><path d="M701.9983456190675,82.84893667325377L624.3121395818889,276.6342830937356L774.0532289072871,256.7426569573581Z" fill="#b9d3ea" stroke="#b9d3ea"></path><path d="M701.9983456190675,82.84893667325377L774.0532289072871,256.7426569573581L853.9415450580418,71.23654916882515Z" fill="#b6d2e8" stroke="#b6d2e8"></path><path d="M853.9415450580418,71.23654916882515L774.0532289072871,256.7426569573581L1026.902523022145,282.0306025072932Z" fill="#a6cbe5" stroke="#a6cbe5"></path><path d="M853.9415450580418,71.23654916882515L1026.902523022145,282.0306025072932L1065.9256235416979,174.3575051240623Z" fill="#9bc4e2" stroke="#9bc4e2"></path><path d="M853.9415450580418,71.23654916882515L1065.9256235416979,174.3575051240623L968.37745456025,29.97573534026742Z" fill="#a3c8e2" stroke="#a3c8e2"></path><path d="M968.37745456025,29.97573534026742L1065.9256235416979,174.3575051240623L1106.459764195606,34.73547843284905Z" fill="#98c3df" stroke="#98c3df"></path><path d="M1106.459764195606,34.73547843284905L1065.9256235416979,174.3575051240623L1246.1774198245257,84.55103617161512Z" fill="#8bbcdc" stroke="#8bbcdc"></path><path d="M1246.1774198245257,84.55103617161512L1065.9256235416979,174.3575051240623L1310.0458167213947,276.77307651378214Z" fill="#7db5d9" stroke="#7db5d9"></path><path d="M1246.1774198245257,84.55103617161512L1310.0458167213947,276.77307651378214L1420.8322917670012,270.3358899336308Z" fill="#73acd5" stroke="#73acd5"></path><path d="M1246.1774198245257,84.55103617161512L1420.8322917670012,270.3358899336308L1475.1194167602807,56.912568463012576Z" fill="#77abd3" stroke="#77abd3"></path><path d="M1475.1194167602807,56.912568463012576L1420.8322917670012,270.3358899336308L1518.5381996724755,276.8938442040235Z" fill="#74a2cf" stroke="#74a2cf"></path><path d="M1475.1194167602807,56.912568463012576L1518.5381996724755,276.8938442040235L1545.6040414609015,24.652420207858086Z" fill="#79a2ce" stroke="#79a2ce"></path><path d="M1545.6040414609015,24.652420207858086L1518.5381996724755,276.8938442040235L1710.1441497635096,210.99010071717203Z" fill="#759bcb" stroke="#759bcb"></path><path d="M1545.6040414609015,24.652420207858086L1710.1441497635096,210.99010071717203L1755.1966275461018,87.78821742162108Z" fill="#7997c8" stroke="#7997c8"></path><path d="M1755.1966275461018,87.78821742162108L1710.1441497635096,210.99010071717203L1820.3724188078195,186.12548533827066Z" fill="#768fc5" stroke="#768fc5"></path><path d="M1755.1966275461018,87.78821742162108L1820.3724188078195,186.12548533827066L1816.84365587309,94.91092141717672Z" fill="#788fc3" stroke="#788fc3"></path><path d="M1816.84365587309,94.91092141717672L1820.3724188078195,186.12548533827066L1869.794344548136,320.4579799901694Z" fill="#7489c2" stroke="#7489c2"></path><path d="M-82.81745865941048,177.9394422378391L-132.31113790534437,504.1328213363886L-38.60666493885219,335.77794866636395Z" fill="#dfecfb" stroke="#dfecfb"></path><path d="M-82.81745865941048,177.9394422378391L-38.60666493885219,335.77794866636395L49.87159584648907,279.1810957621783Z" fill="#e8effb" stroke="#e8effb"></path><path d="M49.87159584648907,279.1810957621783L-38.60666493885219,335.77794866636395L19.5875415019691,375.2451856713742Z" fill="#dbe8f9" stroke="#dbe8f9"></path><path d="M49.87159584648907,279.1810957621783L19.5875415019691,375.2451856713742L236.30808203481138,360.2727881167084Z" fill="#d3e4f7" stroke="#d3e4f7"></path><path d="M49.87159584648907,279.1810957621783L236.30808203481138,360.2727881167084L282.4568902608007,282.47549816966057Z" fill="#d3e2f5" stroke="#d3e2f5"></path><path d="M282.4568902608007,282.47549816966057L236.30808203481138,360.2727881167084L411.7938642203808,350.0022618379444Z" fill="#c7dbf1" stroke="#c7dbf1"></path><path d="M282.4568902608007,282.47549816966057L411.7938642203808,350.0022618379444L407.97736161388457,211.86524575576186Z" fill="#cddcf1" stroke="#cddcf1"></path><path d="M407.97736161388457,211.86524575576186L411.7938642203808,350.0022618379444L517.047359906137,212.7693530637771Z" fill="#cbdbf0" stroke="#cbdbf0"></path><path d="M517.047359906137,212.7693530637771L411.7938642203808,350.0022618379444L578.1421801541001,387.8610992990434Z" fill="#bcd4ed" stroke="#bcd4ed"></path><path d="M517.047359906137,212.7693530637771L578.1421801541001,387.8610992990434L624.3121395818889,276.6342830937356Z" fill="#bad3ec" stroke="#bad3ec"></path><path d="M624.3121395818889,276.6342830937356L578.1421801541001,387.8610992990434L728.1361213792115,418.03926173597574Z" fill="#a8cbe9" stroke="#a8cbe9"></path><path d="M624.3121395818889,276.6342830937356L728.1361213792115,418.03926173597574L774.0532289072871,256.7426569573581Z" fill="#aacce9" stroke="#aacce9"></path><path d="M774.0532289072871,256.7426569573581L728.1361213792115,418.03926173597574L827.102791685611,414.50493237935007Z" fill="#9cc6e6" stroke="#9cc6e6"></path><path d="M774.0532289072871,256.7426569573581L827.102791685611,414.50493237935007L1026.902523022145,282.0306025072932Z" fill="#99c4e5" stroke="#99c4e5"></path><path d="M1026.902523022145,282.0306025072932L827.102791685611,414.50493237935007L1033.8105159346014,434.48264468461275Z" fill="#83bae0" stroke="#83bae0"></path><path d="M1026.902523022145,282.0306025072932L1033.8105159346014,434.48264468461275L1109.2689384240657,329.77056730538607Z" fill="#7bb5dd" stroke="#7bb5dd"></path><path d="M1026.902523022145,282.0306025072932L1109.2689384240657,329.77056730538607L1065.9256235416979,174.3575051240623Z" fill="#89bcde" stroke="#89bcde"></path><path d="M1065.9256235416979,174.3575051240623L1109.2689384240657,329.77056730538607L1226.5275524184108,342.65736744739115Z" fill="#7cb6db" stroke="#7cb6db"></path><path d="M1065.9256235416979,174.3575051240623L1226.5275524184108,342.65736744739115L1310.0458167213947,276.77307651378214Z" fill="#76b2d9" stroke="#76b2d9"></path><path d="M1310.0458167213947,276.77307651378214L1226.5275524184108,342.65736744739115L1410.8708385005593,420.67100322805345Z" fill="#60a4d4" stroke="#60a4d4"></path><path d="M1310.0458167213947,276.77307651378214L1410.8708385005593,420.67100322805345L1420.8322917670012,270.3358899336308Z" fill="#64a1d2" stroke="#64a1d2"></path><path d="M1420.8322917670012,270.3358899336308L1410.8708385005593,420.67100322805345L1518.7328918091953,373.62639921717346Z" fill="#5e9acf" stroke="#5e9acf"></path><path d="M1420.8322917670012,270.3358899336308L1518.7328918091953,373.62639921717346L1518.5381996724755,276.8938442040235Z" fill="#679bce" stroke="#679bce"></path><path d="M1518.5381996724755,276.8938442040235L1518.7328918091953,373.62639921717346L1678.4347588196397,419.0186067391187Z" fill="#5e91ca" stroke="#5e91ca"></path><path d="M1518.5381996724755,276.8938442040235L1678.4347588196397,419.0186067391187L1710.1441497635096,210.99010071717203Z" fill="#6792c8" stroke="#6792c8"></path><path d="M1710.1441497635096,210.99010071717203L1678.4347588196397,419.0186067391187L1869.794344548136,320.4579799901694Z" fill="#6588c4" stroke="#6588c4"></path><path d="M1710.1441497635096,210.99010071717203L1869.794344548136,320.4579799901694L1820.3724188078195,186.12548533827066Z" fill="#718bc3" stroke="#718bc3"></path><path d="M-38.60666493885219,335.77794866636395L-132.31113790534437,504.1328213363886L19.5875415019691,375.2451856713742Z" fill="#d1e5fa" stroke="#d1e5fa"></path><path d="M19.5875415019691,375.2451856713742L-132.31113790534437,504.1328213363886L105.09572004899383,505.7712009642273Z" fill="#c4dff7" stroke="#c4dff7"></path><path d="M19.5875415019691,375.2451856713742L105.09572004899383,505.7712009642273L236.30808203481138,360.2727881167084Z" fill="#c5ddf5" stroke="#c5ddf5"></path><path d="M236.30808203481138,360.2727881167084L105.09572004899383,505.7712009642273L225.1484824810177,486.5351360756904Z" fill="#bad7f2" stroke="#bad7f2"></path><path d="M236.30808203481138,360.2727881167084L225.1484824810177,486.5351360756904L361.4508033916354,495.42325026355684Z" fill="#b6d4f1" stroke="#b6d4f1"></path><path d="M236.30808203481138,360.2727881167084L361.4508033916354,495.42325026355684L411.7938642203808,350.0022618379444Z" fill="#b9d4f0" stroke="#b9d4f0"></path><path d="M411.7938642203808,350.0022618379444L361.4508033916354,495.42325026355684L556.9489067606628,523.7124380562454Z" fill="#a8cbec" stroke="#a8cbec"></path><path d="M411.7938642203808,350.0022618379444L556.9489067606628,523.7124380562454L578.1421801541001,387.8610992990434Z" fill="#a8cbeb" stroke="#a8cbeb"></path><path d="M578.1421801541001,387.8610992990434L556.9489067606628,523.7124380562454L728.1361213792115,418.03926173597574Z" fill="#9bc6e9" stroke="#9bc6e9"></path><path d="M728.1361213792115,418.03926173597574L556.9489067606628,523.7124380562454L665.5983400717378,570.1124731823802Z" fill="#8ebfe7" stroke="#8ebfe7"></path><path d="M728.1361213792115,418.03926173597574L665.5983400717378,570.1124731823802L765.0973396841437,467.6289812475443Z" fill="#8bbfe6" stroke="#8bbfe6"></path><path d="M728.1361213792115,418.03926173597574L765.0973396841437,467.6289812475443L827.102791685611,414.50493237935007Z" fill="#8fc0e6" stroke="#8fc0e6"></path><path d="M827.102791685611,414.50493237935007L765.0973396841437,467.6289812475443L928.4965048078448,577.5488817784935Z" fill="#80bae3" stroke="#80bae3"></path><path d="M827.102791685611,414.50493237935007L928.4965048078448,577.5488817784935L1033.8105159346014,434.48264468461275Z" fill="#76b4e0" stroke="#76b4e0"></path><path d="M1033.8105159346014,434.48264468461275L928.4965048078448,577.5488817784935L1091.192810498178,531.9473287370056Z" fill="#63aadb" stroke="#63aadb"></path><path d="M1033.8105159346014,434.48264468461275L1091.192810498178,531.9473287370056L1109.2689384240657,329.77056730538607Z" fill="#6aaddb" stroke="#6aaddb"></path><path d="M1109.2689384240657,329.77056730538607L1091.192810498178,531.9473287370056L1226.5275524184108,342.65736744739115Z" fill="#67abd9" stroke="#67abd9"></path><path d="M1226.5275524184108,342.65736744739115L1091.192810498178,531.9473287370056L1265.2274124976248,500.2590626478195Z" fill="#56a3d6" stroke="#56a3d6"></path><path d="M1226.5275524184108,342.65736744739115L1265.2274124976248,500.2590626478195L1410.8708385005593,420.67100322805345Z" fill="#539fd3" stroke="#539fd3"></path><path d="M1410.8708385005593,420.67100322805345L1265.2274124976248,500.2590626478195L1382.8567675407976,485.6577294599265Z" fill="#4a98d0" stroke="#4a98d0"></path><path d="M1410.8708385005593,420.67100322805345L1382.8567675407976,485.6577294599265L1569.4061277620494,520.4756630212069Z" fill="#4990cd" stroke="#4990cd"></path><path d="M1410.8708385005593,420.67100322805345L1569.4061277620494,520.4756630212069L1518.7328918091953,373.62639921717346Z" fill="#5090cb" stroke="#5090cb"></path><path d="M1518.7328918091953,373.62639921717346L1569.4061277620494,520.4756630212069L1678.4347588196397,419.0186067391187Z" fill="#508ac8" stroke="#508ac8"></path><path d="M1678.4347588196397,419.0186067391187L1569.4061277620494,520.4756630212069L1743.3205890096724,496.3857285026461Z" fill="#4982c5" stroke="#4982c5"></path><path d="M1678.4347588196397,419.0186067391187L1743.3205890096724,496.3857285026461L1869.794344548136,320.4579799901694Z" fill="#5480c2" stroke="#5480c2"></path><path d="M1869.794344548136,320.4579799901694L1743.3205890096724,496.3857285026461L1841.737382747233,520.059216292575Z" fill="#4e7abf" stroke="#4e7abf"></path><path d="M1869.794344548136,320.4579799901694L1841.737382747233,520.059216292575L1891.125169917941,877.4737198278308Z" fill="#3668b7" stroke="#3668b7"></path><path d="M-132.31113790534437,504.1328213363886L-133.0147048830986,659.7585626319051L83.98479969240725,676.6582428943366Z" fill="#aacef0" stroke="#aacef0"></path><path d="M-132.31113790534437,504.1328213363886L83.98479969240725,676.6582428943366L105.09572004899383,505.7712009642273Z" fill="#afd2f1" stroke="#afd2f1"></path><path d="M105.09572004899383,505.7712009642273L83.98479969240725,676.6582428943366L225.1484824810177,486.5351360756904Z" fill="#a9ceef" stroke="#a9ceef"></path><path d="M225.1484824810177,486.5351360756904L83.98479969240725,676.6582428943366L284.50534044764936,684.838999947533Z" fill="#99c3e9" stroke="#99c3e9"></path><path d="M225.1484824810177,486.5351360756904L284.50534044764936,684.838999947533L361.4508033916354,495.42325026355684Z" fill="#a0c7eb" stroke="#a0c7eb"></path><path d="M361.4508033916354,495.42325026355684L284.50534044764936,684.838999947533L422.7885222248733,663.8614606764168Z" fill="#8fbce5" stroke="#8fbce5"></path><path d="M361.4508033916354,495.42325026355684L422.7885222248733,663.8614606764168L556.9489067606628,523.7124380562454Z" fill="#94c0e7" stroke="#94c0e7"></path><path d="M556.9489067606628,523.7124380562454L422.7885222248733,663.8614606764168L511.3365307543427,705.1349472440779Z" fill="#81b4e0" stroke="#81b4e0"></path><path d="M556.9489067606628,523.7124380562454L511.3365307543427,705.1349472440779L640.4165240284055,649.1415908094496Z" fill="#7cb2df" stroke="#7cb2df"></path><path d="M556.9489067606628,523.7124380562454L640.4165240284055,649.1415908094496L665.5983400717378,570.1124731823802Z" fill="#80b6e2" stroke="#80b6e2"></path><path d="M665.5983400717378,570.1124731823802L640.4165240284055,649.1415908094496L852.5741333328187,661.5265730302781Z" fill="#6eacdc" stroke="#6eacdc"></path><path d="M665.5983400717378,570.1124731823802L852.5741333328187,661.5265730302781L765.0973396841437,467.6289812475443Z" fill="#77b2e0" stroke="#77b2e0"></path><path d="M765.0973396841437,467.6289812475443L852.5741333328187,661.5265730302781L928.4965048078448,577.5488817784935Z" fill="#6eaedd" stroke="#6eaedd"></path><path d="M928.4965048078448,577.5488817784935L852.5741333328187,661.5265730302781L1015.6502432562411,674.7158682066947Z" fill="#559fd5" stroke="#559fd5"></path><path d="M928.4965048078448,577.5488817784935L1015.6502432562411,674.7158682066947L1091.192810498178,531.9473287370056Z" fill="#539fd6" stroke="#539fd6"></path><path d="M1091.192810498178,531.9473287370056L1015.6502432562411,674.7158682066947L1093.4810291603208,730.7947122864425Z" fill="#4195cf" stroke="#4195cf"></path><path d="M1091.192810498178,531.9473287370056L1093.4810291603208,730.7947122864425L1287.9343033768237,627.2310177795589Z" fill="#3891cd" stroke="#3891cd"></path><path d="M1091.192810498178,531.9473287370056L1287.9343033768237,627.2310177795589L1265.2274124976248,500.2590626478195Z" fill="#4197d1" stroke="#4197d1"></path><path d="M1265.2274124976248,500.2590626478195L1287.9343033768237,627.2310177795589L1382.8567675407976,485.6577294599265Z" fill="#3d93ce" stroke="#3d93ce"></path><path d="M1382.8567675407976,485.6577294599265L1287.9343033768237,627.2310177795589L1417.078107437119,621.9126668013632Z" fill="#358ac9" stroke="#358ac9"></path><path d="M1382.8567675407976,485.6577294599265L1417.078107437119,621.9126668013632L1569.4061277620494,520.4756630212069Z" fill="#3c88c8" stroke="#3c88c8"></path><path d="M1569.4061277620494,520.4756630212069L1417.078107437119,621.9126668013632L1596.7257808428258,706.3291136641055Z" fill="#2d7ac0" stroke="#2d7ac0"></path><path d="M1569.4061277620494,520.4756630212069L1596.7257808428258,706.3291136641055L1675.4612349160016,630.9465136192739Z" fill="#2c73bd" stroke="#2c73bd"></path><path d="M1569.4061277620494,520.4756630212069L1675.4612349160016,630.9465136192739L1743.3205890096724,496.3857285026461Z" fill="#3b79c0" stroke="#3b79c0"></path><path d="M1743.3205890096724,496.3857285026461L1675.4612349160016,630.9465136192739L1841.737382747233,520.059216292575Z" fill="#3b73bd" stroke="#3b73bd"></path><path d="M1841.737382747233,520.059216292575L1675.4612349160016,630.9465136192739L1817.690059589222,690.5149567499757Z" fill="#2d68b7" stroke="#2d68b7"></path><path d="M1841.737382747233,520.059216292575L1817.690059589222,690.5149567499757L1891.125169917941,877.4737198278308Z" fill="#1c58ae" stroke="#1c58ae"></path><path d="M-133.0147048830986,659.7585626319051L-123.71745340526104,1172.76004367508L-23.15823158249259,1013.6693269014359Z" fill="#7fa2d8" stroke="#7fa2d8"></path><path d="M-133.0147048830986,659.7585626319051L-23.15823158249259,1013.6693269014359L-17.309868363663554,800.9701146930456Z" fill="#7db2e0" stroke="#7db2e0"></path><path d="M-133.0147048830986,659.7585626319051L-17.309868363663554,800.9701146930456L83.98479969240725,676.6582428943366Z" fill="#93bfe7" stroke="#93bfe7"></path><path d="M83.98479969240725,676.6582428943366L-17.309868363663554,800.9701146930456L73.70551977306604,819.613670418039Z" fill="#83b5e2" stroke="#83b5e2"></path><path d="M83.98479969240725,676.6582428943366L73.70551977306604,819.613670418039L205.3958627767861,796.1900485306978Z" fill="#7fb2e0" stroke="#7fb2e0"></path><path d="M83.98479969240725,676.6582428943366L205.3958627767861,796.1900485306978L284.50534044764936,684.838999947533Z" fill="#84b5e1" stroke="#84b5e1"></path><path d="M284.50534044764936,684.838999947533L205.3958627767861,796.1900485306978L351.0661749076098,859.448214629665Z" fill="#72a9db" stroke="#72a9db"></path><path d="M284.50534044764936,684.838999947533L351.0661749076098,859.448214629665L422.7885222248733,663.8614606764168Z" fill="#76acdc" stroke="#76acdc"></path><path d="M422.7885222248733,663.8614606764168L351.0661749076098,859.448214629665L476.63111144676805,802.0285205449909Z" fill="#6aa3d8" stroke="#6aa3d8"></path><path d="M422.7885222248733,663.8614606764168L476.63111144676805,802.0285205449909L511.3365307543427,705.1349472440779Z" fill="#70a8da" stroke="#70a8da"></path><path d="M511.3365307543427,705.1349472440779L476.63111144676805,802.0285205449909L663.3570049144328,830.4185524955392Z" fill="#5d9ed4" stroke="#5d9ed4"></path><path d="M511.3365307543427,705.1349472440779L663.3570049144328,830.4185524955392L640.4165240284055,649.1415908094496Z" fill="#63a2d7" stroke="#63a2d7"></path><path d="M640.4165240284055,649.1415908094496L663.3570049144328,830.4185524955392L852.5741333328187,661.5265730302781Z" fill="#5ca0d6" stroke="#5ca0d6"></path><path d="M852.5741333328187,661.5265730302781L663.3570049144328,830.4185524955392L843.2564104814082,828.0966474115849Z" fill="#4a95d0" stroke="#4a95d0"></path><path d="M852.5741333328187,661.5265730302781L843.2564104814082,828.0966474115849L935.7557266205549,838.7988101877272Z" fill="#4090cd" stroke="#4090cd"></path><path d="M852.5741333328187,661.5265730302781L935.7557266205549,838.7988101877272L1015.6502432562411,674.7158682066947Z" fill="#4293ce" stroke="#4293ce"></path><path d="M1015.6502432562411,674.7158682066947L935.7557266205549,838.7988101877272L1093.4810291603208,730.7947122864425Z" fill="#338aca" stroke="#338aca"></path><path d="M1093.4810291603208,730.7947122864425L935.7557266205549,838.7988101877272L1123.3137245010585,869.9649149179459Z" fill="#207fc4" stroke="#207fc4"></path><path d="M1093.4810291603208,730.7947122864425L1123.3137245010585,869.9649149179459L1267.0809078868479,864.68695233576Z" fill="#1076bf" stroke="#1076bf"></path><path d="M1093.4810291603208,730.7947122864425L1267.0809078868479,864.68695233576L1287.9343033768237,627.2310177795589Z" fill="#197dc3" stroke="#197dc3"></path><path d="M1287.9343033768237,627.2310177795589L1267.0809078868479,864.68695233576L1466.9031826872379,805.3999380860478Z" fill="#0e72bc" stroke="#0e72bc"></path><path d="M1287.9343033768237,627.2310177795589L1466.9031826872379,805.3999380860478L1417.078107437119,621.9126668013632Z" fill="#1e79c0" stroke="#1e79c0"></path><path d="M1417.078107437119,621.9126668013632L1466.9031826872379,805.3999380860478L1596.7257808428258,706.3291136641055Z" fill="#196fbb" stroke="#196fbb"></path><path d="M1596.7257808428258,706.3291136641055L1466.9031826872379,805.3999380860478L1626.292686732486,765.9149600286037Z" fill="#0f63b4" stroke="#0f63b4"></path><path d="M1596.7257808428258,706.3291136641055L1626.292686732486,765.9149600286037L1675.4612349160016,630.9465136192739Z" fill="#1b66b6" stroke="#1b66b6"></path><path d="M1675.4612349160016,630.9465136192739L1626.292686732486,765.9149600286037L1712.0036678016186,814.2511884961277Z" fill="#145fb2" stroke="#145fb2"></path><path d="M1675.4612349160016,630.9465136192739L1712.0036678016186,814.2511884961277L1817.690059589222,690.5149567499757Z" fill="#195eb2" stroke="#195eb2"></path><path d="M1817.690059589222,690.5149567499757L1712.0036678016186,814.2511884961277L1891.125169917941,877.4737198278308Z" fill="#084ea9" stroke="#084ea9"></path><path d="M-17.309868363663554,800.9701146930456L-23.15823158249259,1013.6693269014359L73.70551977306604,819.613670418039Z" fill="#78a7da" stroke="#78a7da"></path><path d="M73.70551977306604,819.613670418039L-23.15823158249259,1013.6693269014359L130.43733017519116,963.0266963504255Z" fill="#759ed5" stroke="#759ed5"></path><path d="M73.70551977306604,819.613670418039L130.43733017519116,963.0266963504255L196.226987214759,935.8288788422942Z" fill="#709ed5" stroke="#709ed5"></path><path d="M73.70551977306604,819.613670418039L196.226987214759,935.8288788422942L205.3958627767861,796.1900485306978Z" fill="#6fa4d8" stroke="#6fa4d8"></path><path d="M205.3958627767861,796.1900485306978L196.226987214759,935.8288788422942L351.0661749076098,859.448214629665Z" fill="#699fd5" stroke="#699fd5"></path><path d="M351.0661749076098,859.448214629665L196.226987214759,935.8288788422942L398.2663585804403,949.1114246752113Z" fill="#6595d0" stroke="#6595d0"></path><path d="M351.0661749076098,859.448214629665L398.2663585804403,949.1114246752113L476.63111144676805,802.0285205449909Z" fill="#5f97d1" stroke="#5f97d1"></path><path d="M476.63111144676805,802.0285205449909L398.2663585804403,949.1114246752113L513.3630071114749,959.982714978978Z" fill="#5b90cd" stroke="#5b90cd"></path><path d="M476.63111144676805,802.0285205449909L513.3630071114749,959.982714978978L663.3570049144328,830.4185524955392Z" fill="#5392ce" stroke="#5392ce"></path><path d="M663.3570049144328,830.4185524955392L513.3630071114749,959.982714978978L698.896613297984,945.6944666616619Z" fill="#4c89c9" stroke="#4c89c9"></path><path d="M663.3570049144328,830.4185524955392L698.896613297984,945.6944666616619L843.2564104814082,828.0966474115849Z" fill="#438aca" stroke="#438aca"></path><path d="M843.2564104814082,828.0966474115849L698.896613297984,945.6944666616619L779.3015204463154,997.2742841765285Z" fill="#3f81c5" stroke="#3f81c5"></path><path d="M843.2564104814082,828.0966474115849L779.3015204463154,997.2742841765285L932.5874720793217,950.3136706911027Z" fill="#387dc2" stroke="#387dc2"></path><path d="M843.2564104814082,828.0966474115849L932.5874720793217,950.3136706911027L935.7557266205549,838.7988101877272Z" fill="#3181c5" stroke="#3181c5"></path><path d="M935.7557266205549,838.7988101877272L932.5874720793217,950.3136706911027L1123.3137245010585,869.9649149179459Z" fill="#2479c0" stroke="#2479c0"></path><path d="M1123.3137245010585,869.9649149179459L932.5874720793217,950.3136706911027L1084.0636893175542,1025.0626353453845Z" fill="#1e6dba" stroke="#1e6dba"></path><path d="M1123.3137245010585,869.9649149179459L1084.0636893175542,1025.0626353453845L1285.6091347150505,946.3354597426951Z" fill="#0e65b5" stroke="#0e65b5"></path><path d="M1123.3137245010585,869.9649149179459L1285.6091347150505,946.3354597426951L1267.0809078868479,864.68695233576Z" fill="#0668b7" stroke="#0668b7"></path><path d="M1267.0809078868479,864.68695233576L1285.6091347150505,946.3354597426951L1466.9031826872379,805.3999380860478Z" fill="#0063b4" stroke="#0063b4"></path><path d="M1466.9031826872379,805.3999380860478L1285.6091347150505,946.3354597426951L1446.1989984288812,976.9854257348925Z" fill="#005ab0" stroke="#005ab0"></path><path d="M1466.9031826872379,805.3999380860478L1446.1989984288812,976.9854257348925L1627.0462855696678,1026.9843255355954Z" fill="#004fa9" stroke="#004fa9"></path><path d="M1466.9031826872379,805.3999380860478L1627.0462855696678,1026.9843255355954L1626.292686732486,765.9149600286037Z" fill="#0054ac" stroke="#0054ac"></path><path d="M1626.292686732486,765.9149600286037L1627.0462855696678,1026.9843255355954L1712.0036678016186,814.2511884961277Z" fill="#004ea9" stroke="#004ea9"></path><path d="M1712.0036678016186,814.2511884961277L1627.0462855696678,1026.9843255355954L1733.3405141159892,1011.3425937574357Z" fill="#0040a2" stroke="#0040a2"></path><path d="M1712.0036678016186,814.2511884961277L1733.3405141159892,1011.3425937574357L1872.0946241542697,942.6487174909562Z" fill="#003fa1" stroke="#003fa1"></path><path d="M1712.0036678016186,814.2511884961277L1872.0946241542697,942.6487174909562L1891.125169917941,877.4737198278308Z" fill="#0041a2" stroke="#0041a2"></path><path d="M1891.125169917941,877.4737198278308L1872.0946241542697,942.6487174909562L1888.9365659840405,1163.4856382757425Z" fill="#002d97" stroke="#002d97"></path><path d="M-23.15823158249259,1013.6693269014359L-123.71745340526104,1172.76004367508L25.64954051747918,1171.7895353771746Z" fill="#7b89c9" stroke="#7b89c9"></path><path d="M-23.15823158249259,1013.6693269014359L25.64954051747918,1171.7895353771746L130.43733017519116,963.0266963504255Z" fill="#768ecd" stroke="#768ecd"></path><path d="M130.43733017519116,963.0266963504255L25.64954051747918,1171.7895353771746L202.27666740305722,1130.2941949758679Z" fill="#7185c8" stroke="#7185c8"></path><path d="M130.43733017519116,963.0266963504255L202.27666740305722,1130.2941949758679L196.226987214759,935.8288788422942Z" fill="#6e8ecc" stroke="#6e8ecc"></path><path d="M196.226987214759,935.8288788422942L202.27666740305722,1130.2941949758679L398.2663585804403,949.1114246752113Z" fill="#688acb" stroke="#688acb"></path><path d="M398.2663585804403,949.1114246752113L202.27666740305722,1130.2941949758679L394.9649440962821,1145.1807522308081Z" fill="#647ec3" stroke="#647ec3"></path><path d="M398.2663585804403,949.1114246752113L394.9649440962821,1145.1807522308081L513.3630071114749,959.982714978978Z" fill="#5d81c5" stroke="#5d81c5"></path><path d="M513.3630071114749,959.982714978978L394.9649440962821,1145.1807522308081L537.4171372968704,1111.9024179317057Z" fill="#5978c0" stroke="#5978c0"></path><path d="M513.3630071114749,959.982714978978L537.4171372968704,1111.9024179317057L698.896613297984,945.6944666616619Z" fill="#507dc3" stroke="#507dc3"></path><path d="M698.896613297984,945.6944666616619L537.4171372968704,1111.9024179317057L730.4907744191587,1108.8988817855716Z" fill="#4a74be" stroke="#4a74be"></path><path d="M698.896613297984,945.6944666616619L730.4907744191587,1108.8988817855716L779.3015204463154,997.2742841765285Z" fill="#4376bf" stroke="#4376bf"></path><path d="M779.3015204463154,997.2742841765285L730.4907744191587,1108.8988817855716L859.9675251916051,1067.6749458443373Z" fill="#3e6ebb" stroke="#3e6ebb"></path><path d="M779.3015204463154,997.2742841765285L859.9675251916051,1067.6749458443373L932.5874720793217,950.3136706911027Z" fill="#3772bc" stroke="#3772bc"></path><path d="M932.5874720793217,950.3136706911027L859.9675251916051,1067.6749458443373L951.4190958626568,1129.058538051322Z" fill="#2f68b7" stroke="#2f68b7"></path><path d="M932.5874720793217,950.3136706911027L951.4190958626568,1129.058538051322L1084.0636893175542,1025.0626353453845Z" fill="#2565b5" stroke="#2565b5"></path><path d="M1084.0636893175542,1025.0626353453845L951.4190958626568,1129.058538051322L1119.9932159855962,1072.8717245534062Z" fill="#1d5bb0" stroke="#1d5bb0"></path><path d="M1084.0636893175542,1025.0626353453845L1119.9932159855962,1072.8717245534062L1285.6091347150505,946.3354597426951Z" fill="#0e5cb0" stroke="#0e5cb0"></path><path d="M1285.6091347150505,946.3354597426951L1119.9932159855962,1072.8717245534062L1309.982807468623,1118.7592946458608Z" fill="#0452ab" stroke="#0452ab"></path><path d="M1285.6091347150505,946.3354597426951L1309.982807468623,1118.7592946458608L1446.1989984288812,976.9854257348925Z" fill="#004faa" stroke="#004faa"></path><path d="M1446.1989984288812,976.9854257348925L1309.982807468623,1118.7592946458608L1390.2211048454046,1142.3601475730538Z" fill="#0044a3" stroke="#0044a3"></path><path d="M1446.1989984288812,976.9854257348925L1390.2211048454046,1142.3601475730538L1612.0460833143443,1166.2705131992698Z" fill="#003b9e" stroke="#003b9e"></path><path d="M1446.1989984288812,976.9854257348925L1612.0460833143443,1166.2705131992698L1627.0462855696678,1026.9843255355954Z" fill="#003b9f" stroke="#003b9f"></path><path d="M1627.0462855696678,1026.9843255355954L1612.0460833143443,1166.2705131992698L1681.356108142063,1147.7963420469314Z" fill="#002e97" stroke="#002e97"></path><path d="M1627.0462855696678,1026.9843255355954L1681.356108142063,1147.7963420469314L1733.3405141159892,1011.3425937574357Z" fill="#00329a" stroke="#00329a"></path><path d="M1733.3405141159892,1011.3425937574357L1681.356108142063,1147.7963420469314L1888.9365659840405,1163.4856382757425Z" fill="#002693" stroke="#002693"></path><path d="M1733.3405141159892,1011.3425937574357L1888.9365659840405,1163.4856382757425L1872.0946241542697,942.6487174909562Z" fill="#002b95" stroke="#002b95"></path><path d="M-123.71745340526104,1172.76004367508L1612.0460833143443,1166.2705131992698L25.64954051747918,1171.7895353771746Z" fill="#576ab8" stroke="#576ab8"></path><path d="M25.64954051747918,1171.7895353771746L1612.0460833143443,1166.2705131992698L394.9649440962821,1145.1807522308081Z" fill="#4865b5" stroke="#4865b5"></path><path d="M25.64954051747918,1171.7895353771746L394.9649440962821,1145.1807522308081L202.27666740305722,1130.2941949758679Z" fill="#6c7ac1" stroke="#6c7ac1"></path><path d="M394.9649440962821,1145.1807522308081L1612.0460833143443,1166.2705131992698L951.4190958626568,1129.058538051322Z" fill="#2656ad" stroke="#2656ad"></path><path d="M394.9649440962821,1145.1807522308081L951.4190958626568,1129.058538051322L730.4907744191587,1108.8988817855716Z" fill="#4669b7" stroke="#4669b7"></path><path d="M394.9649440962821,1145.1807522308081L730.4907744191587,1108.8988817855716L537.4171372968704,1111.9024179317057Z" fill="#536ebb" stroke="#536ebb"></path><path d="M730.4907744191587,1108.8988817855716L951.4190958626568,1129.058538051322L859.9675251916051,1067.6749458443373Z" fill="#3866b6" stroke="#3866b6"></path><path d="M951.4190958626568,1129.058538051322L1612.0460833143443,1166.2705131992698L1390.2211048454046,1142.3601475730538Z" fill="#003fa1" stroke="#003fa1"></path><path d="M951.4190958626568,1129.058538051322L1390.2211048454046,1142.3601475730538L1309.982807468623,1118.7592946458608Z" fill="#0748a6" stroke="#0748a6"></path><path d="M951.4190958626568,1129.058538051322L1309.982807468623,1118.7592946458608L1119.9932159855962,1072.8717245534062Z" fill="#1351ab" stroke="#1351ab"></path><path d="M1612.0460833143443,1166.2705131992698L1888.9365659840405,1163.4856382757425L1681.356108142063,1147.7963420469314Z" fill="#002191" stroke="#002191"></path></g></svg>